<svg width="161" height="32" viewBox="0 0 161 32" fill="none" xmlns="http://www.w3.org/2000/svg">
<g clip-path="url(#clip0)">
<path d="M31.4217 7.38867C36.2816 8.10406 40.7023 13.1662 40.9757 18.3203C41.3279 25.0475 37.6612 30.2392 31.1317 31.6826C29.303 32.1349 27.392 32.1241 25.5684 31.6512C23.7449 31.1783 22.0652 30.2578 20.6787 28.9716L20.9439 28.6746C21.4247 28.6553 21.903 28.5937 22.3732 28.4905C25.3853 27.612 27.4568 25.4784 29.0519 22.9348C32.0722 18.132 33.3483 12.9904 31.4217 7.38867Z" fill="#FE9E60"/>
<path d="M15.6943 31.4184C11.5512 32.7195 7.76858 31.7949 4.50797 29.0882C-2.614 23.1894 -1.0272 11.8017 7.37084 8.01143C7.75382 7.86567 8.14541 7.74412 8.54333 7.64746C7.67403 10.0315 7.47893 12.6129 7.97987 15.1026C8.88721 19.9889 11.0996 24.1976 15.2013 27.193C15.367 28.6071 15.5286 30.0127 15.6943 31.4184Z" fill="#49C9FA"/>
<path d="M15.2013 27.1929C11.0997 24.185 8.88726 19.9763 7.97992 15.0899C7.47898 12.6002 7.67407 10.0189 8.54338 7.63481L8.87897 7.28339C9.73245 7.21646 10.5901 7.16207 11.4435 7.0784C14.7953 6.75627 17.7493 7.64318 20.2269 10.0069C20.0081 10.3914 19.7557 10.7554 19.4728 11.0946C16.0631 14.5795 15.5908 20.9511 17.509 24.7037C18.2133 26.0717 19.1414 27.3268 19.97 28.6363C18.1761 28.8663 16.6845 28.0296 15.2013 27.1929Z" fill="#8770EE"/>
<path d="M31.4211 7.38875C33.3476 12.9905 32.0715 18.1321 29.0512 22.9348C27.4561 25.4784 25.3846 27.6121 22.3726 28.4906C21.8982 28.5945 21.4158 28.6561 20.9308 28.6747C21.3202 28.1517 21.7138 27.6288 22.1033 27.1017C23.255 25.5978 24.0514 23.8483 24.432 21.9865C24.8125 20.1247 24.7671 18.1997 24.2991 16.3583C23.7481 13.8858 22.3394 11.8735 20.7153 10.0118C23.0189 7.86986 25.7823 7.00387 28.8689 7.02478C29.6064 7.02478 30.3439 7.02478 31.0813 7.02478L31.4211 7.38875Z" fill="#B96BD2"/>
<path d="M31.0732 7.02446C30.3357 7.02446 29.5983 7.02446 28.8608 7.02446C25.7742 7.00354 23.0108 7.86117 20.7072 10.0115H20.239C17.7532 7.66454 14.8074 6.77763 11.4557 7.08303C10.6022 7.1667 9.74459 7.22109 8.89111 7.28802C10.7969 2.51041 16.3777 -0.673279 21.5441 0.121597C25.8695 0.790965 29.1384 2.96641 31.0732 7.02446Z" fill="#BA93F8"/>
<path d="M20.2272 10.0029H20.6953C22.3526 11.8646 23.7488 13.8769 24.3122 16.3494C24.7802 18.1908 24.8257 20.1157 24.4451 21.9776C24.0646 23.8394 23.2681 25.5889 22.1164 27.0927C21.727 27.6199 21.3334 28.1428 20.9439 28.6658L20.6788 28.9628L20.426 28.9168L19.9744 28.6281C19.1458 27.3187 18.2178 26.0636 17.5134 24.6956C15.5952 20.9304 16.0675 14.5714 19.4773 11.0865C19.7585 10.7484 20.0095 10.3858 20.2272 10.0029Z" fill="#AA5ED1"/>
<path d="M19.974 28.6367L20.4256 28.9254L15.6942 31.4355C15.5285 30.0298 15.3669 28.6241 15.2012 27.2227C16.6844 28.0301 18.1759 28.8668 19.974 28.6367Z" fill="#4C83DC"/>
</g>
<path d="M63.474 18.774L67.038 19.478C66.7007 21.2967 65.8573 22.7267 64.508 23.768C63.1587 24.8093 61.5233 25.33 59.602 25.33C57.4167 25.33 55.5613 24.5893 54.036 23.108C52.5253 21.6267 51.77 19.8007 51.77 17.63C51.77 15.474 52.5253 13.6553 54.036 12.174C55.5613 10.678 57.4167 9.93 59.602 9.93C61.45 9.93 63.056 10.4433 64.42 11.47C65.7987 12.4967 66.664 13.868 67.016 15.584L63.452 16.42C63.232 15.3787 62.7773 14.594 62.088 14.066C61.4133 13.5233 60.5847 13.252 59.602 13.252C58.4287 13.252 57.4313 13.67 56.61 14.506C55.8033 15.342 55.4 16.3833 55.4 17.63C55.4 18.8767 55.8033 19.9253 56.61 20.776C57.4313 21.612 58.4287 22.03 59.602 22.03C60.57 22.03 61.3913 21.7587 62.066 21.216C62.7553 20.6587 63.2247 19.8447 63.474 18.774ZM72.5968 25H69.0768V9.16H72.5968V25ZM80.5469 13.67C82.2335 13.67 83.6635 14.2127 84.8369 15.298C86.0102 16.3833 86.5969 17.7767 86.5969 19.478C86.5969 21.194 86.0102 22.5947 84.8369 23.68C83.6635 24.7653 82.2335 25.308 80.5469 25.308C78.8309 25.308 77.3789 24.7653 76.1909 23.68C75.0175 22.5947 74.4309 21.194 74.4309 19.478C74.4309 17.7767 75.0175 16.3833 76.1909 15.298C77.3789 14.2127 78.8309 13.67 80.5469 13.67ZM80.5469 22.338C81.2655 22.338 81.8889 22.074 82.4169 21.546C82.9449 21.0033 83.2089 20.314 83.2089 19.478C83.2089 18.642 82.9375 17.96 82.3949 17.432C81.8669 16.8893 81.2509 16.618 80.5469 16.618C79.8135 16.618 79.1755 16.8893 78.6329 17.432C78.0902 17.96 77.8189 18.642 77.8189 19.478C77.8189 20.314 78.0829 21.0033 78.6109 21.546C79.1535 22.074 79.7989 22.338 80.5469 22.338ZM99.4567 13.956V25H95.9367V23.944C95.0567 24.868 93.9274 25.33 92.5487 25.33C91.2581 25.33 90.2167 24.912 89.4247 24.076C88.6474 23.2253 88.2587 22.1107 88.2587 20.732V13.956H91.7567V19.984C91.7567 20.6293 91.9327 21.1573 92.2847 21.568C92.6367 21.964 93.0914 22.162 93.6487 22.162C94.3674 22.162 94.9247 21.9127 95.3207 21.414C95.7314 20.9007 95.9367 20.1233 95.9367 19.082V13.956H99.4567ZM113.628 9.16V25H110.108V24.12C109.214 24.9267 108.07 25.33 106.676 25.33C105.18 25.33 103.904 24.7873 102.848 23.702C101.807 22.602 101.286 21.194 101.286 19.478C101.286 17.7767 101.807 16.376 102.848 15.276C103.904 14.176 105.18 13.626 106.676 13.626C108.07 13.626 109.214 14.0293 110.108 14.836V9.16H113.628ZM107.402 22.338C108.136 22.338 108.766 22.074 109.294 21.546C109.837 21.0033 110.108 20.314 110.108 19.478C110.108 18.6567 109.837 17.9747 109.294 17.432C108.766 16.8893 108.136 16.618 107.402 16.618C106.625 16.618 105.987 16.8893 105.488 17.432C104.99 17.96 104.74 18.642 104.74 19.478C104.74 20.3287 104.99 21.018 105.488 21.546C105.987 22.074 106.625 22.338 107.402 22.338ZM126.995 19.478V20.38H118.899C119.045 21.04 119.331 21.5607 119.757 21.942C120.182 22.3233 120.688 22.514 121.275 22.514C122.375 22.514 123.159 22.0887 123.629 21.238L126.753 21.876C126.283 23.02 125.572 23.8853 124.619 24.472C123.68 25.044 122.565 25.33 121.275 25.33C119.647 25.33 118.268 24.7873 117.139 23.702C116.009 22.602 115.445 21.194 115.445 19.478C115.445 17.7767 116.009 16.376 117.139 15.276C118.268 14.176 119.654 13.626 121.297 13.626C122.895 13.626 124.237 14.1613 125.323 15.232C126.408 16.3027 126.965 17.718 126.995 19.478ZM121.297 16.486C120.783 16.486 120.307 16.64 119.867 16.948C119.427 17.256 119.126 17.6813 118.965 18.224H123.519C123.357 17.652 123.079 17.2193 122.683 16.926C122.287 16.6327 121.825 16.486 121.297 16.486ZM135.733 13.626C137.023 13.626 138.057 14.0513 138.835 14.902C139.627 15.738 140.023 16.8453 140.023 18.224V25H136.525V18.972C136.525 18.3267 136.349 17.806 135.997 17.41C135.645 16.9993 135.19 16.794 134.633 16.794C133.914 16.794 133.349 17.0507 132.939 17.564C132.543 18.0627 132.345 18.8327 132.345 19.874V25H128.825V13.956H132.345V15.012C133.225 14.088 134.354 13.626 135.733 13.626ZM145.944 25H142.424V9.16H145.944V25ZM160.363 13.934L153.983 28.74H150.177L151.959 24.626L147.383 13.934H151.167L153.785 20.38L156.579 13.934H160.363Z" fill="black"/>
<defs>
<clipPath id="clip0">
<rect width="41" height="32" fill="white"/>
</clipPath>
</defs>
</svg>
